PathFileType	4	(X/Y/Z)	C:\Users\Basilio\Documents\Thesis Gigler\squatting_fais\c3dfiles\054\SJ_pre3\markers_experimental.trc
DataRate	CameraRate	NumFrames	NumMarkers	Units	OrigDataRate	OrigDataStartFrame	OrigNumFrames
200.000000	200.000000	4	61	mm	200.000000	1569	1794
Frame#	Time	FHD			LBHD			RBHD			C7			T10			CLAV			LSHO			LUUPA			LMUPA			LDUPA			LLEP			LMEP			LRAD			LUL			LRFIN			RSHO			RUPA1			RMUPA			RDUPA			RLEP			RMEP			RRAD			RUL			RUFIN			LASI			RASI			USACR			LSACR			RSACR			LTHI1			LTHI2			LTHI3			LTHI4			LLFC			LMFC			LTIB1			LTIB2			LTIB3			LTIB4			LLMAL			LMMAL			LHEE			LMT1			LMT2			LMT5			RTHI			RTHI2			RTHI3			RTHI4			RLFC			RMFC			RTIB1			RTIB2			RTIB3			RTIB4			RLMAL			RMMAL			RHEE			RMT1			RMT2			RMT5			
		X1	Y1	Z1	X2	Y2	Z2	X3	Y3	Z3	X4	Y4	Z4	X5	Y5	Z5	X6	Y6	Z6	X7	Y7	Z7	X8	Y8	Z8	X9	Y9	Z9	X10	Y10	Z10	X11	Y11	Z11	X12	Y12	Z12	X13	Y13	Z13	X14	Y14	Z14	X15	Y15	Z15	X16	Y16	Z16	X17	Y17	Z17	X18	Y18	Z18	X19	Y19	Z19	X20	Y20	Z20	X21	Y21	Z21	X22	Y22	Z22	X23	Y23	Z23	X24	Y24	Z24	X25	Y25	Z25	X26	Y26	Z26	X27	Y27	Z27	X28	Y28	Z28	X29	Y29	Z29	X30	Y30	Z30	X31	Y31	Z31	X32	Y32	Z32	X33	Y33	Z33	X34	Y34	Z34	X35	Y35	Z35	X36	Y36	Z36	X37	Y37	Z37	X38	Y38	Z38	X39	Y39	Z39	X40	Y40	Z40	X41	Y41	Z41	X42	Y42	Z42	X43	Y43	Z43	X44	Y44	Z44	X45	Y45	Z45	X46	Y46	Z46	X47	Y47	Z47	X48	Y48	Z48	X49	Y49	Z49	X50	Y50	Z50	X51	Y51	Z51	X52	Y52	Z52	X53	Y53	Z53	X54	Y54	Z54	X55	Y55	Z55	X56	Y56	Z56	X57	Y57	Z57	X58	Y58	Z58	X59	Y59	Z59	X60	Y60	Z60	X61	Y61	Z61	

1570	7.845	-91.70877075195314	1739.8974609375	-815.4332275390627	-251.6040954589844	1681.701171875	-886.4143676757815	-267.5451965332032	1675.978515625	-747.3657836914064	-299.2330322265626	1528.029418945313	-809.7715454101565	-367.4085693359376	1196.290771484375	-835.547790527344	-162.2290649414063	1449.725830078125	-821.3902587890627	-224.1256408691407	1524.016845703125	-973.3064575195315	-325.0880432128907	1416.699584960938	-1153.44580078125	-290.4356384277344	1378.700805664063	-1162.706298828125	-337.3984680175782	1365.845947265625	-1199.653564453125	-336.4314880371094	1302.87353515625	-1225.593139648438	-411.5940856933595	1286.907958984375	-1179.057373046875	-313.5690612792969	1088.821044921875	-1071.552978515625	-268.8583068847657	1053.238037109375	-1123.895874023438	-258.4164733886719	1089.592041015625	-1029.385009765625	-198.5485382080079	1507.626708984375	-653.8375854492189	-302.2481689453126	1367.373168945313	-484.1270141601564	-279.9765319824219	1323.587646484375	-483.6742553710939	-330.2788696289063	1311.5908203125	-451.0831298828126	-343.5711669921876	1262.719848632813	-439.123992919922	-410.806365966797	1265.339965820313	-493.4761657714845	-340.3477172851563	1056.153198242188	-623.1279907226564	-298.5078430175782	1020.611022949219	-564.3453369140626	-275.2540588378907	1068.628295898438	-643.0669555664064	-198.1579284667969	1004.377685546875	-961.4696044921877	-191.8285064697266	1004.687255859375	-706.3060302734376	-377.7308044433594	1103.409912109375	-834.128356933594	-384.9990844726564	1072.040405273438	-862.0222778320315	-383.9853515625001	1071.166259765625	-805.4654541015627	-327.1382446289063	795.9945068359377	-1069.432739257813	-300.8077392578126	717.7828369140626	-1089.391723632813	-252.9630889892579	719.3271484375001	-1091.03759765625	-329.9816894531251	664.0601806640626	-1079.135009765625	-330.0269775390626	508.8976135253907	-1090.104858398438	-262.7959289550782	473.6293029785157	-976.0343017578127	-279.9306945800782	344.3902893066407	-1101.831298828125	-347.2327575683594	311.3559875488282	-1150.391357421875	-303.0514221191407	304.8059692382813	-1140.759887695313	-296.8827514648438	221.5221405029297	-1129.172485351563	-367.1137390136719	89.07537078857423	-1183.578979492188	-304.9745483398438	97.2652282714844	-1107.184814453125	-411.0229492187501	50.39949417114259	-1111.749755859375	-199.4727630615235	55.3876190185547	-1175.97802734375	-210.7127227783204	59.68098068237306	-1224.519653320313	-274.8706359863282	38.66759109497071	-1256.954467773438	-321.1917724609376	727.2554321289064	-615.2998657226564	-287.9141540527344	671.5706176757814	-603.8539428710939	-254.9713897705079	671.1242065429689	-602.4213256835939	-315.2367858886719	594.0296020507814	-622.2685546875001	-327.9469299316407	499.8054504394532	-620.3059692382814	-240.520980834961	489.8566284179689	-726.8591918945314	-270.6590576171876	399.9685974121095	-590.9754028320314	-343.9201354980469	324.0276794433594	-572.2075195312501	-297.7933654785157	321.0285339355469	-563.2150268554689	-272.3248596191407	270.5306701660157	-571.7469482421876	-320.0667114257813	88.90711212158205	-541.3969116210939	-252.676254272461	100.4776916503907	-608.1108398437501	-351.5293579101563	47.62014770507813	-619.5541992187501	-142.6921844482422	56.44552230834962	-532.3966674804689	-162.1046142578125	58.09848403930665	-488.330535888672	-225.3308563232422	35.06977081298829	-464.1983947753907	
1571	7.850000000000001	-90.89880371093751	1739.728637695313	-816.273376464844	-251.1976623535157	1681.662719726563	-887.0449829101565	-267.3964843750001	1676.048583984375	-747.7554321289064	-299.0747375488282	1528.119384765625	-810.1700439453127	-367.6047973632813	1196.323608398438	-835.5383300781252	-161.9430541992188	1449.62451171875	-821.8128662109377	-224.1659698486329	1523.78466796875	-973.776062011719	-324.9016723632813	1416.297241210938	-1153.776611328125	-290.4306945800782	1378.363403320313	-1163.14013671875	-337.6416320800782	1365.600830078125	-1200.0986328125	-336.6320495605469	1302.411865234375	-1225.870361328125	-411.6936035156251	1286.49853515625	-1179.47412109375	-313.8208618164063	1088.520629882813	-1071.708618164063	-269.1012268066407	1052.901611328125	-1123.990844726563	-258.7341918945313	1089.319946289063	-1029.525268554688	-198.3361816406251	1507.555419921875	-654.2764282226564	-301.6830139160157	1367.468139648438	-484.4194335937501	-279.7988586425782	1323.651000976563	-483.8806152343751	-329.7076721191407	1311.710815429688	-451.3289489746095	-343.0972595214844	1262.939819335938	-439.3043518066407	-410.487518310547	1265.51806640625	-493.6084899902345	-340.4660339355469	1056.140014648438	-623.1821289062501	-298.5397033691407	1020.599060058594	-564.3969116210939	-275.4999389648438	1068.53759765625	-643.0955810546876	-198.3106689453126	1004.348876953125	-961.4971923828127	-191.8429260253907	1004.636169433594	-706.3246459960939	-377.8898010253907	1103.342895507813	-834.1455078125002	-385.1690368652345	1071.943481445313	-862.0570068359377	-384.0488891601564	1071.104736328125	-805.4995727539065	-327.3993225097657	795.9179687500002	-1069.468017578125	-300.3973388671876	717.7868041992189	-1089.733154296875	-252.5617218017579	719.5350341796876	-1091.517822265625	-329.3900146484376	664.0349731445314	-1079.586181640625	-329.0539550781251	508.9754943847657	-1090.8212890625	-261.3617858886719	473.6771850585939	-976.8739013671877	-278.7879943847657	344.2558593750001	-1102.440795898438	-346.4814147949219	311.2601013183594	-1150.80517578125	-302.3235473632813	304.6546020507813	-1141.203491210938	-296.2150268554688	221.6224060058594	-1129.493774414063	-367.0729370117188	89.09341430664064	-1183.572021484375	-304.9400634765626	97.27749633789065	-1107.141723632813	-410.9961853027345	50.41827392578126	-1111.779052734375	-199.1350555419922	55.2066116333008	-1176.161010742188	-210.7040710449219	59.7015724182129	-1224.5185546875	-274.8611755371094	38.6991310119629	-1256.95361328125	-321.2638854980469	727.2327880859376	-615.4347534179689	-288.0034179687501	671.4253540039064	-604.0535888671876	-255.0837860107422	671.0609130859376	-602.5767822265626	-315.3757629394532	593.9385375976564	-622.4855957031251	-328.1104431152344	499.7392578125001	-620.4220581054689	-240.5430755615235	489.7547302246095	-726.8983764648439	-270.7361450195313	399.9667053222657	-591.0195922851564	-343.9809875488282	324.0088500976563	-572.2955932617189	-297.8666992187501	321.0191345214844	-563.3157348632814	-272.3348083496094	270.5224304199219	-571.7738037109376	-320.0651245117188	88.90205383300783	-541.4010620117189	-252.6841735839844	100.4533081054688	-608.1470947265626	-351.5219421386719	47.59908676147462	-619.5096435546876	-142.7061920166016	56.4596405029297	-532.3661499023439	-162.1221618652344	58.09389877319337	-488.3462524414064	-225.3189697265626	35.05155563354493	-464.1672668457032	
1572	7.855	-90.39795684814455	1739.475341796875	-816.8921508789065	-250.8153381347657	1681.462768554688	-887.6428833007815	-266.9199829101563	1676.0400390625	-748.5750122070314	-298.8889465332032	1528.136474609375	-810.6568603515627	-367.6391601562501	1196.296264648438	-835.583190917969	-161.812744140625	1449.564697265625	-822.3196411132815	-224.1639862060547	1523.494506835938	-974.3101196289065	-325.0928649902344	1415.8046875	-1154.058471679688	-290.5715942382813	1377.930419921875	-1163.5673828125	-337.7972717285157	1365.032836914063	-1200.471557617188	-336.7525939941407	1301.933959960938	-1226.213134765625	-411.8570251464845	1286.00732421875	-1179.805297851563	-313.9818420410157	1088.1865234375	-1071.842529296875	-269.4472961425782	1052.4931640625	-1124.000366210938	-259.0577697753907	1089.044067382813	-1029.640625	-197.5563201904297	1507.421997070313	-655.2819213867189	-301.2441711425782	1367.617431640625	-484.6343383789064	-279.4721679687501	1323.732788085938	-484.1820373535157	-329.2025451660157	1311.882080078125	-451.6624755859376	-342.6333618164063	1263.058227539063	-439.5891418457032	-410.2608642578126	1265.69091796875	-493.7364807128907	-340.4961853027344	1056.107666015625	-623.2221069335939	-298.5709533691407	1020.587890625	-564.4649658203126	-275.5703125000001	1068.39794921875	-643.0913085937501	-198.4260253906251	1004.3271484375	-961.5921630859377	-191.9065704345703	1004.514831542969	-706.4197998046876	-378.0345764160157	1103.325073242188	-834.1660766601565	-385.3379211425782	1071.923950195313	-862.084655761719	-384.1389465332032	1071.0390625	-805.5728759765627	-327.2857360839844	795.8392333984377	-1069.6259765625	-300.0171203613282	717.8743286132814	-1089.985107421875	-252.2386169433594	719.7664184570314	-1091.931518554688	-328.8028869628907	663.9479980468751	-1079.968994140625	-327.8864746093751	508.8168334960939	-1091.438354492188	-260.3883972167969	473.7303771972657	-977.6575927734377	-278.3694458007813	344.0469665527344	-1102.897338867188	-345.7228393554688	311.1911926269532	-1151.106079101563	-301.7525939941407	304.4496459960938	-1141.563232421875	-296.0945129394532	221.4827423095704	-1129.669189453125	-366.9922485351563	89.0792694091797	-1183.537109375	-304.9157409667969	97.24677276611331	-1107.166748046875	-411.0274047851564	50.40663909912111	-1111.725463867188	-199.1396179199219	55.23006820678712	-1176.118774414063	-210.6982421875001	59.71116256713869	-1224.521850585938	-274.7847900390626	38.70871734619141	-1256.959716796875	-321.3727416992188	727.1713867187501	-615.6123657226564	-288.1712036132813	671.3600463867189	-604.1856689453126	-255.1914978027344	670.9844970703126	-602.7090454101564	-315.5277099609376	593.8565673828126	-622.6273193359376	-328.3516845703126	499.664031982422	-620.5767211914064	-240.6433410644532	489.6408691406251	-727.0070800781251	-270.8348083496094	399.937713623047	-591.1418457031251	-344.0914916992188	323.9750976562501	-572.4320068359376	-298.0337219238282	321.0511169433594	-563.3081054687501	-272.4366760253907	270.5007019042969	-571.8466186523439	-320.0288696289063	88.89660644531251	-541.4244995117189	-252.7328186035157	100.4314956665039	-608.1328125000001	-351.5659790039063	47.62387847900391	-619.5191040039064	-142.6948699951172	56.46089935302736	-532.3648681640626	-162.1242218017578	58.07578659057619	-488.3103942871095	-225.2951049804688	35.04056549072266	-464.1675109863282	
1573	7.86	-90.03289031982423	1739.308349609375	-817.642517089844	-250.5757141113282	1681.422729492188	-888.3921508789065	-266.6311950683594	1676.115478515625	-749.4308471679689	-298.7128906250001	1528.089111328125	-811.1658935546877	-367.8138427734376	1196.266723632813	-835.586120605469	-161.9039306640625	1449.510498046875	-822.7886962890627	-224.1803894042969	1523.172973632813	-974.8819580078127	-325.2871704101563	1415.450805664063	-1154.502197265625	-289.6641845703126	1377.5732421875	-1164.234130859375	-338.0294189453126	1364.534912109375	-1200.94287109375	-336.8932800292969	1301.504516601563	-1226.568237304688	-412.1104125976564	1285.568115234375	-1180.025756835938	-314.2046203613282	1087.817260742188	-1071.918334960938	-269.6990661621094	1052.076049804688	-1124.072631835938	-259.4763183593751	1088.904541015625	-1029.7822265625	-197.2875213623047	1507.713256835938	-655.2125244140626	-300.8190002441407	1367.703491210938	-484.9526977539064	-278.9468383789063	1323.777954101563	-484.6182556152345	-328.7864685058594	1311.979370117188	-451.8877563476564	-342.1429443359376	1263.161010742188	-439.8189086914064	-409.8383178710939	1265.840576171875	-493.8930053710939	-340.5562438964844	1056.099853515625	-623.2133178710939	-298.5870056152344	1020.604431152344	-564.5167846679689	-275.5900268554688	1068.233032226563	-643.1707763671876	-198.9513397216797	1004.362731933594	-961.6755981445315	-191.9921569824219	1004.428833007813	-706.4679565429689	-378.2179565429688	1103.2724609375	-834.1530761718752	-385.637908935547	1071.854125976563	-862.1091308593752	-384.2574157714845	1070.968994140625	-805.6361083984377	-327.1953430175782	795.8067626953127	-1069.759765625	-299.6535949707032	718.0006103515626	-1090.282592773438	-251.6482086181641	720.1139526367189	-1092.42431640625	-328.0097961425782	663.8525390625001	-1080.374267578125	-326.7880554199219	508.7791137695314	-1092.055419921875	-259.0878601074219	473.7213134765626	-978.4503173828127	-277.4106445312501	343.9335632324219	-1103.415405273438	-345.2192687988282	311.0504455566407	-1151.391723632813	-301.0486755371094	304.2241516113282	-1141.866577148438	-295.8457641601563	221.1999206542969	-1129.914794921875	-367.0216064453126	89.0427932739258	-1183.4931640625	-304.8554992675782	97.24214172363284	-1107.105834960938	-410.994110107422	50.40871047973634	-1111.722045898438	-199.4862060546876	55.3637161254883	-1175.96435546875	-210.684310913086	59.73633193969728	-1224.508666992188	-274.8823547363282	38.71389389038087	-1256.949951171875	-321.5931091308594	727.1149291992189	-615.8557128906251	-288.4461669921876	671.2687377929689	-604.2802734375001	-255.3539123535157	670.8864135742189	-602.9039916992189	-316.0448303222657	593.7808837890626	-622.7578735351564	-328.5159606933594	499.6352539062501	-620.7803955078126	-240.8124084472657	489.5108642578126	-727.1011962890626	-270.9650573730469	399.9395751953126	-591.2020874023439	-344.2241821289063	323.9436340332032	-572.5698242187501	-298.2326965332032	321.0198364257813	-563.3344726562501	-272.5355529785157	270.5099487304688	-571.8923339843751	-320.0520935058594	88.88687896728517	-541.4427490234376	-252.7618865966797	100.4268112182617	-608.1451416015626	-351.5273742675782	47.5813217163086	-619.5197143554689	-142.7108154296875	56.44932174682619	-532.3307495117189	-162.113265991211	58.08086013793947	-488.2951965332032	-225.3688507080079	35.06000518798829	-464.1718750000001	
